<?xml version="1.0" standalone="no"?>
<!DOCTYPE svg PUBLIC "-//W3C//DTD SVG 20010904//EN"
 "http://www.w3.org/TR/2001/REC-SVG-20010904/DTD/svg10.dtd">
<svg version="1.0" xmlns="http://www.w3.org/2000/svg"
 width="300.000000pt" height="300.000000pt" viewBox="0 0 300.000000 300.000000"
 preserveAspectRatio="xMidYMid meet">

<g transform="translate(0.000000,300.000000) scale(0.100000,-0.100000)"
fill="#000000" stroke="none">
<path d="M412 1741 c-19 -12 -12 -116 8 -116 10 0 16 12 18 37 l3 37 170 3
c93 2 168 0 167 -4 -2 -3 -41 -46 -88 -95 l-85 -88 -70 -5 c-53 -4 -70 -9 -70
-20 0 -10 13 -17 38 -20 21 -3 38 -9 38 -13 1 -5 -36 -47 -81 -93 -52 -54 -80
-90 -76 -99 4 -13 43 -15 241 -15 l235 0 0 61 c0 52 -2 60 -17 57 -13 -2 -19
-14 -21 -41 l-3 -37 -180 0 c-98 0 -179 3 -179 8 0 4 37 44 83 88 81 80 83 81
137 83 62 3 65 4 57 26 -4 9 -19 15 -37 15 -35 0 -37 6 -12 29 74 68 171 182
166 195 -5 14 -35 16 -218 16 -116 0 -217 -4 -224 -9z"/>
<path d="M925 1740 c-11 -17 5 -30 36 -30 l29 0 0 -209 0 -210 -32 -3 c-21 -2
-33 -8 -33 -18 0 -13 33 -15 224 -18 173 -2 226 1 233 10 10 17 10 80 -1 97
-16 25 -41 4 -41 -34 l0 -35 -150 0 -150 0 0 209 0 210 32 3 c22 2 34 9 36 21
3 15 -6 17 -87 17 -49 0 -93 -4 -96 -10z"/>
<path d="M1442 1733 c2 -12 14 -19 36 -21 l32 -3 0 -209 0 -209 -32 -3 c-21
-2 -33 -8 -33 -18 0 -12 17 -16 79 -18 44 -2 85 -1 92 2 24 9 3 36 -27 36
l-28 0 -3 181 c-2 100 -1 182 2 184 3 1 78 -89 168 -202 90 -112 169 -202 175
-200 9 3 13 68 15 230 l2 227 35 0 c29 0 35 4 35 20 0 20 -5 21 -87 18 -70 -2
-88 -6 -88 -18 0 -10 12 -16 33 -18 l32 -3 0 -185 0 -184 -82 99 c-46 55 -121
147 -167 205 l-85 106 -54 0 c-45 0 -53 -3 -50 -17z"/>
<path d="M2075 1740 c-11 -17 5 -30 36 -30 l29 0 0 -210 0 -210 -36 0 c-28 0
-35 -3 -32 -17 3 -15 17 -18 91 -21 82 -3 87 -2 87 18 0 16 -6 20 -30 20 -17
0 -33 6 -36 13 -2 7 -3 91 -2 187 l3 175 80 -99 c44 -54 85 -104 90 -110 6 -6
45 -55 88 -108 43 -54 84 -98 92 -98 13 0 15 34 15 230 l0 230 36 0 c28 0 35
3 32 18 -3 14 -17 17 -91 20 -82 3 -87 2 -87 -18 0 -16 6 -20 30 -20 17 0 33
-6 36 -13 2 -7 3 -91 2 -187 l-3 -173 -134 167 c-74 92 -139 173 -146 179 -6
7 -19 24 -29 40 -16 23 -25 27 -67 27 -26 0 -51 -4 -54 -10z"/>
</g>
</svg>
