<?xml version="1.0" standalone="no"?>
<!DOCTYPE svg PUBLIC "-//W3C//DTD SVG 20010904//EN"
 "http://www.w3.org/TR/2001/REC-SVG-20010904/DTD/svg10.dtd">
<svg version="1.0" xmlns="http://www.w3.org/2000/svg"
 width="719.000000pt" height="718.000000pt" viewBox="0 0 719.000000 718.000000"
 preserveAspectRatio="xMidYMid meet">

<g transform="translate(0.000000,718.000000) scale(0.100000,-0.100000)"
fill="#000000" stroke="none">
<path d="M7171 6747 c-1 -250 -5 -448 -11 -468 -6 -18 -10 -56 -11 -84 -1 -27
-4 -61 -8 -75 -4 -14 -3 -45 3 -68 7 -31 6 -53 -2 -74 -10 -27 -9 -31 8 -35
17 -5 20 -14 20 -64 0 -48 -3 -59 -16 -59 -14 0 -15 -10 -9 -76 5 -53 4 -74
-4 -70 -15 9 -26 -41 -14 -67 5 -12 8 -94 6 -181 -1 -98 2 -165 8 -172 12 -15
9 -125 -3 -118 -8 5 -12 -18 -8 -45 1 -8 -4 -17 -11 -22 -10 -6 -9 -13 4 -32
13 -20 14 -32 5 -66 -7 -28 -7 -54 0 -82 9 -34 7 -44 -6 -60 -23 -26 -26 -129
-4 -129 12 0 13 -12 7 -77 -4 -43 -7 -124 -6 -180 2 -63 -2 -104 -8 -108 -13
-8 -14 -104 -2 -124 6 -9 4 -22 -5 -37 -10 -14 -11 -24 -5 -28 13 -8 3 -36
-13 -36 -6 0 -19 9 -29 20 -9 11 -21 20 -27 20 -18 0 41 -58 66 -64 23 -6 34
-26 14 -26 -5 0 -10 -18 -10 -40 0 -51 -27 -57 -32 -7 l-3 32 -12 -38 c-6 -20
-7 -35 -2 -31 5 3 9 -24 9 -61 0 -42 4 -64 10 -60 6 3 10 -3 10 -14 0 -12 5
-21 10 -21 13 0 13 -77 -1 -82 -13 -4 5 -91 20 -96 17 -6 13 -32 -4 -32 -11 0
-14 -9 -13 -32 2 -26 -1 -32 -14 -30 -13 2 -18 -9 -24 -54 -9 -72 4 -226 19
-236 9 -6 9 -10 0 -16 -9 -6 -11 -30 -6 -92 4 -51 9 -76 13 -65 10 27 22 -44
19 -111 -1 -27 2 -69 6 -94 11 -68 11 -180 0 -183 -6 -3 -6 -16 2 -37 7 -19 9
-36 4 -39 -5 -4 -10 -58 -11 -121 -2 -110 -2 -131 2 -182 1 -13 0 -63 0 -113
-1 -49 -2 -146 -3 -215 0 -68 -5 -130 -10 -137 -7 -7 -6 -26 1 -53 6 -23 9
-48 6 -55 -2 -7 0 -45 5 -85 7 -49 7 -75 0 -84 -6 -7 -9 -44 -7 -84 1 -39 -1
-97 -7 -129 -5 -32 -8 -86 -8 -121 1 -36 -3 -62 -9 -62 -11 0 -14 -63 -3 -73
10 -10 3 -118 -8 -140 -6 -10 -11 -30 -12 -44 l-2 -27 -102 1 c-70 0 -108 4
-119 13 -12 11 -17 11 -23 1 -6 -10 -33 -12 -112 -7 -57 3 -119 6 -137 6 -26
0 -33 4 -31 17 0 10 0 20 -1 23 -1 3 -4 92 -6 198 -2 106 -6 197 -9 203 -9 14
-28 11 -22 -4 3 -7 -6 -23 -19 -36 -16 -15 -24 -34 -24 -56 0 -33 -13 -54 -24
-37 -3 5 -8 165 -10 356 -4 249 -2 354 6 372 9 20 9 27 -1 34 -11 6 -15 77
-19 331 -6 424 -4 704 7 754 9 39 9 39 10 8 1 -38 16 -44 27 -10 4 12 11 24
15 28 13 8 28 100 24 142 -1 20 1 52 5 72 4 19 5 35 0 35 -4 0 -6 150 -4 333
2 182 -1 420 -7 527 -9 191 -10 195 -35 218 -14 12 -31 22 -39 22 -21 0 -26
31 -21 112 8 116 9 331 2 623 -3 149 -8 380 -11 515 -3 135 -6 353 -6 485 0
143 -5 247 -11 258 -7 14 -7 22 1 26 11 7 10 86 -1 97 -12 11 -20 -78 -18
-191 1 -66 2 -127 2 -135 -1 -13 -12 -1048 -14 -1265 -1 -38 0 -128 0 -200 1
-71 -1 -186 -4 -255 -3 -69 -6 -363 -7 -655 -2 -400 1 -536 10 -555 9 -18 10
-42 4 -80 -5 -30 -7 -58 -5 -61 2 -4 6 -105 9 -225 4 -121 8 -243 9 -271 4
-58 0 -65 -14 -30 -8 21 -9 21 -9 -5 -1 -14 4 -28 10 -30 12 -4 17 -143 18
-506 1 -205 -1 -245 -14 -258 -18 -19 -20 -55 -2 -51 7 1 13 -10 15 -27 3 -22
0 -27 -11 -23 -15 6 -18 0 -36 -58 -9 -29 -9 -29 6 -7 29 41 45 28 41 -33 -1
-30 0 -55 3 -55 9 0 9 -429 0 -434 -10 -6 -31 -7 -252 -7 -172 0 -251 11 -220
31 11 6 8 9 -10 13 l-24 4 22 8 c28 9 20 25 -13 25 -14 0 -24 -6 -24 -14 0
-10 -15 -13 -61 -12 -68 1 -105 -20 -39 -22 22 -1 40 2 40 8 0 5 6 8 13 6 6
-3 24 -7 40 -10 52 -12 27 -26 -47 -26 -42 0 -78 -5 -81 -10 -9 -15 -37 9 -31
26 7 18 -10 27 -35 19 -15 -5 -18 -10 -11 -17 8 -8 6 -15 -3 -24 -17 -17 -46
-18 -44 -1 4 30 -3 33 -78 32 -42 0 -69 -1 -60 -3 10 -2 17 -8 17 -13 0 -5 18
-9 40 -9 22 0 40 -4 40 -10 0 -6 -37 -11 -87 -11 -49 -1 -133 -3 -188 -4 -55
-2 -251 -6 -435 -9 -184 -4 -365 -8 -401 -11 -50 -3 -71 -1 -85 11 -10 9 -13
13 -7 9 9 -4 11 -1 7 9 -7 18 -24 12 -24 -9 0 -14 -7 -15 -128 -18 -46 -2 -86
1 -88 5 -3 5 -13 4 -23 -1 -9 -6 -81 -10 -158 -10 -111 0 -142 3 -147 14 -3
10 0 12 12 8 14 -5 15 -3 5 7 -8 9 -16 10 -25 3 -7 -6 -23 -12 -34 -15 -17 -4
-20 -2 -17 12 3 10 -1 21 -8 26 -8 5 -11 3 -7 -7 4 -10 -2 -14 -18 -14 -13 0
-24 3 -24 8 0 4 8 7 18 7 14 0 15 2 2 9 -8 6 -17 8 -20 6 -7 -4 -2 87 5 94 3
2 -3 10 -13 18 -16 14 -16 14 1 9 10 -3 15 -2 12 3 -3 5 -1 12 5 16 5 3 10 13
10 21 0 8 -5 12 -10 9 -6 -4 -8 -10 -5 -15 3 -5 1 -11 -4 -14 -5 -3 -12 1 -15
10 -4 11 -13 14 -31 10 -14 -4 -25 -2 -25 4 0 5 6 9 13 7 18 -3 22 70 4 88
-11 10 -14 35 -13 87 2 62 -1 78 -21 105 -13 17 -23 39 -23 47 0 9 -5 15 -12
13 -7 -1 -15 19 -21 53 -5 30 -17 60 -26 67 -14 11 -14 14 -1 23 12 8 13 13 2
27 -7 10 -15 26 -18 36 -4 9 -12 17 -20 17 -11 0 -11 5 -1 28 6 15 17 33 24
40 19 20 16 21 -20 15 -41 -6 -67 17 -47 42 15 18 50 15 75 -5 15 -13 17 -12
14 5 -2 12 -22 29 -48 41 -24 12 -48 28 -53 38 -5 9 -15 16 -23 16 -8 0 -19 9
-25 20 -6 11 -18 20 -27 20 -13 0 -13 3 -3 15 10 12 10 15 -1 15 -34 1 42 29
94 35 31 4 60 11 63 17 12 19 -99 108 -135 108 -26 0 -29 36 -3 44 9 3 28 23
41 43 34 52 62 73 88 67 11 -3 32 0 45 7 12 7 27 13 31 14 4 0 11 6 16 13 7
11 39 23 100 36 7 1 18 11 24 21 17 31 75 85 91 85 9 0 31 9 51 20 20 11 39
20 43 20 4 0 31 -23 60 -50 29 -27 50 -50 46 -50 -3 0 0 -8 7 -17 13 -15 12
-16 -8 -11 -29 8 -29 -5 -2 -66 30 -69 130 -170 213 -216 54 -31 65 -40 46
-40 -14 0 -32 -5 -40 -11 -11 -8 -7 -9 18 -5 49 8 38 -1 -20 -19 -34 -10 -54
-12 -56 -5 -4 12 -109 14 -116 2 -3 -5 25 -16 62 -26 37 -9 99 -35 139 -57 40
-21 81 -39 92 -39 27 0 35 -17 14 -28 -19 -11 -55 -113 -43 -125 4 -5 28 0 53
11 94 42 137 36 137 -18 0 -60 53 -84 65 -29 5 22 20 39 53 60 25 16 54 29 65
29 26 0 55 17 106 62 63 55 108 66 168 42 26 -10 51 -20 54 -22 3 -1 11 10 18
24 11 25 9 30 -26 67 -23 24 -28 34 -14 24 20 -14 26 -14 38 -2 8 8 24 21 35
30 19 12 20 19 12 42 -7 21 -5 41 8 80 24 69 38 239 38 451 0 216 -10 219 -80
27 -10 -28 -12 -29 -22 -10 -17 31 -50 66 -81 85 -15 10 -49 37 -75 61 l-48
44 104 125 c147 176 202 300 222 498 12 111 5 355 -11 382 -6 12 -8 10 -9 -8
0 -12 -7 -39 -16 -60 -18 -44 -28 -33 -38 43 -8 59 -18 108 -90 405 -30 124
-63 265 -75 313 -11 48 -27 102 -35 119 -22 42 -20 62 8 107 37 58 101 86 201
85 85 0 133 -18 231 -85 53 -36 135 -162 174 -268 l31 -84 -11 -116 c-5 -64
-19 -171 -30 -238 -21 -123 -23 -213 -5 -214 13 -1 36 69 102 306 55 199 55
201 64 390 7 174 6 198 -13 280 -39 173 -135 395 -203 470 l-36 40 7 -95 c6
-94 6 -96 -21 -128 -30 -35 -52 -39 -95 -17 -37 19 -60 52 -60 85 0 31 -41 73
-85 87 -18 6 -33 19 -37 34 -4 13 -14 49 -23 79 -9 30 -25 67 -36 82 -10 15
-19 34 -19 41 0 8 -8 25 -18 38 -9 13 -24 40 -33 59 -9 19 -38 81 -66 137 -28
57 -46 100 -40 96 17 -10 -2 49 -28 87 -12 19 -60 76 -104 125 -45 50 -98 116
-117 148 -20 31 -37 57 -39 57 -7 0 -43 -89 -54 -135 -6 -27 -15 -95 -20 -149
-9 -112 -10 -113 -136 -201 -31 -22 -64 -53 -72 -70 -20 -39 -72 -111 -150
-208 -65 -80 -69 -90 -77 -172 -12 -141 -46 -242 -101 -301 -20 -21 -30 -24
-65 -20 -42 5 -67 16 -39 16 10 1 9 4 -4 11 -19 11 -57 3 -57 -12 0 -5 -7 -9
-15 -9 -8 0 -15 5 -15 10 0 15 -92 12 -140 -5 -39 -14 -82 -12 -105 5 -5 4
-23 10 -40 14 -16 4 -36 17 -43 28 -12 16 -16 17 -23 7 -6 -10 -9 -11 -9 -1 0
6 -6 12 -14 12 -8 0 -18 10 -22 23 -4 12 -17 33 -30 46 -13 13 -24 31 -24 40
0 25 -42 121 -78 176 -17 28 -32 57 -32 66 0 9 -11 29 -25 45 -14 16 -30 34
-35 41 -5 7 -34 20 -64 29 -51 16 -54 16 -78 -2 -26 -19 -35 -36 -63 -114 -24
-65 -33 -106 -50 -221 -9 -57 -17 -104 -19 -106 -5 -6 -35 129 -42 192 -8 78
-58 227 -96 287 -22 34 -32 68 -39 120 -15 119 -35 168 -94 233 -62 67 -69 66
-111 -17 -13 -26 -51 -88 -83 -137 -32 -49 -62 -102 -65 -117 -10 -37 -21 -18
-31 50 -4 27 -18 74 -31 104 -13 30 -24 60 -24 66 0 7 -15 30 -34 52 -18 21
-33 43 -33 49 1 20 -91 86 -127 92 -35 5 -41 3 -73 -33 -34 -38 -35 -41 -29
-103 3 -35 9 -68 14 -75 15 -19 21 -55 32 -211 5 -82 12 -169 15 -192 l5 -41
-67 -7 c-38 -3 -88 -14 -113 -22 -25 -9 -79 -17 -120 -18 -140 -3 -142 -3
-135 -24 7 -24 -10 -30 -185 -66 -240 -50 -334 -91 -328 -144 2 -21 -4 -29
-37 -45 -22 -11 -71 -21 -110 -24 -68 -4 -72 -3 -104 27 l-34 32 7 74 c4 41 3
75 -1 75 -11 0 -131 -124 -171 -176 -93 -122 -163 -272 -192 -412 -27 -135
-27 -264 -1 -427 29 -176 37 -204 93 -324 49 -106 69 -127 47 -50 -18 62 -15
305 4 400 16 77 72 203 130 289 76 113 189 201 289 225 36 8 111 15 178 15
110 0 118 -2 180 -33 54 -26 69 -40 88 -77 12 -24 22 -59 22 -77 0 -38 -93
-231 -145 -303 -41 -56 -185 -345 -185 -371 0 -11 -18 -55 -40 -98 -22 -43
-43 -99 -46 -125 -4 -26 -10 -49 -15 -51 -4 -3 -22 21 -40 52 -18 32 -39 66
-48 76 -14 17 -16 16 -29 -20 -8 -21 -17 -85 -19 -143 -5 -95 -2 -116 25 -220
17 -64 43 -142 57 -175 31 -70 137 -232 192 -292 51 -56 221 -203 250 -216 36
-16 38 -1 7 37 -234 278 -301 422 -292 620 7 131 49 233 135 326 101 109 178
164 321 230 l131 60 97 0 c79 0 102 -4 129 -20 63 -39 69 -58 69 -226 1 -98
-3 -156 -10 -165 -6 -8 -15 -25 -19 -38 -7 -24 -14 -35 -45 -69 -8 -10 -21
-30 -27 -45 -7 -15 -17 -27 -22 -27 -5 0 -12 -11 -15 -25 -3 -13 -15 -29 -26
-35 -11 -6 -20 -17 -20 -24 0 -8 -11 -21 -24 -30 -28 -18 -57 -104 -59 -178
-1 -26 -5 -48 -8 -48 -11 0 -27 -52 -33 -103 -4 -29 -20 -73 -42 -109 -20 -35
-33 -70 -31 -80 4 -12 -5 -30 -24 -49 -25 -26 -29 -37 -29 -85 0 -30 -5 -64
-11 -76 -6 -11 -15 -48 -19 -81 -5 -35 -16 -66 -25 -73 -8 -6 -15 -23 -15 -37
0 -14 -5 -29 -10 -32 -6 -4 -8 -11 -4 -16 3 -5 0 -17 -7 -25 -6 -8 -9 -17 -6
-21 4 -3 1 -15 -5 -26 -6 -11 -10 -43 -9 -70 0 -27 -6 -64 -14 -81 -8 -17 -16
-42 -18 -55 -2 -13 -11 -29 -20 -36 -9 -6 -19 -32 -23 -56 -4 -24 -15 -60 -26
-79 -10 -19 -18 -43 -18 -54 0 -10 -8 -24 -17 -31 -22 -16 -21 -94 1 -128 8
-12 16 -26 17 -32 1 -5 8 -20 16 -31 7 -12 16 -31 18 -43 6 -31 14 -41 41 -51
33 -13 30 -30 -5 -30 -27 0 -28 -1 -18 -25 7 -14 15 -25 20 -25 4 0 7 -9 7
-19 0 -28 14 -33 28 -10 10 16 10 21 -3 25 -20 8 -19 24 1 24 10 0 14 6 11 14
-5 11 1 12 29 3 57 -17 78 -93 33 -117 -26 -15 -24 -30 5 -30 15 0 26 7 29 18
4 16 5 16 6 0 0 -10 8 -18 17 -18 10 0 14 6 11 14 -6 14 21 46 39 46 14 1 46
49 39 60 -3 6 1 10 9 10 9 0 22 16 31 36 8 19 19 33 23 30 18 -11 61 19 77 54
19 38 52 163 53 195 2 112 17 251 28 263 7 7 18 31 24 52 6 22 15 42 20 45 6
3 10 22 10 41 0 22 5 34 13 33 28 -3 35 3 41 40 7 46 40 107 62 115 8 3 13 10
10 15 -3 5 0 11 7 14 9 3 24 -33 50 -126 50 -175 56 -180 72 -54 3 26 10 47
16 47 5 0 9 -4 9 -9 0 -5 14 -14 30 -21 17 -7 30 -16 30 -21 0 -5 12 -12 26
-15 27 -7 65 -38 63 -52 -4 -23 2 -52 11 -52 7 0 8 18 4 50 -9 66 8 66 59 -1
38 -50 74 -122 97 -194 7 -22 19 -45 26 -52 10 -10 14 -6 23 19 14 39 14 68 1
68 -5 0 -10 5 -10 10 0 6 7 10 16 10 14 0 16 -8 10 -52 -20 -146 -20 -137 4
-163 13 -14 27 -25 31 -25 5 0 23 22 40 49 53 81 117 102 239 80 57 -10 83
-10 140 1 64 12 73 12 105 -6 19 -10 35 -22 35 -26 0 -5 9 -8 19 -8 11 0 22
-6 24 -12 3 -7 6 -2 7 12 0 14 7 34 15 44 8 11 12 29 9 43 -4 13 0 30 7 39 10
13 10 17 -2 25 -10 6 -6 9 15 9 20 0 27 -4 23 -14 -3 -8 2 -16 14 -19 16 -4
19 -11 13 -34 -4 -15 -12 -31 -18 -36 -8 -5 -7 -10 2 -15 9 -6 11 -18 6 -35
-4 -20 -2 -27 9 -27 17 0 27 -21 27 -55 0 -13 4 -26 9 -29 11 -7 2 -46 -10
-46 -15 0 -10 -40 6 -56 17 -18 20 -33 5 -35 -5 -1 -14 -3 -20 -4 -5 -1 -16
-3 -24 -4 -8 0 -17 -9 -19 -18 -4 -14 -5 -14 -6 3 -1 25 -16 39 -48 47 -18 4
-23 1 -23 -13 0 -11 5 -22 10 -25 7 -4 7 -12 0 -25 -5 -10 -7 -26 -4 -35 7
-17 -13 -102 -28 -122 -6 -7 -7 -25 -3 -42 3 -17 2 -32 -4 -36 -8 -4 -6 -11 3
-21 9 -8 13 -21 10 -28 -3 -8 -1 -17 5 -20 7 -5 7 -15 -1 -31 -10 -21 -8 -28
12 -45 13 -11 19 -20 14 -20 -5 0 -1 -5 9 -11 9 -5 23 -7 30 -3 9 6 9 4 -1 -8
-11 -13 -7 -15 27 -13 22 1 39 -1 38 -4 -1 -3 5 -16 12 -29 15 -29 7 -54 -16
-50 -10 1 -24 -1 -32 -6 -9 -6 -12 -5 -8 2 5 6 0 8 -13 5 -16 -4 -18 -8 -9
-19 13 -16 45 -18 54 -4 9 14 25 12 25 -3 0 -23 -40 -39 -84 -33 -25 3 -32 2
-17 -2 26 -8 38 -52 14 -52 -7 0 -13 9 -13 20 0 11 -4 20 -9 20 -6 0 -6 -12
-1 -30 9 -30 8 -31 -28 -30 -42 1 -320 -6 -629 -16 -192 -6 -213 -5 -213 10 0
9 7 16 15 16 8 0 15 5 15 11 0 5 -4 7 -10 4 -5 -3 -10 0 -10 7 0 9 -3 9 -8 2
-11 -17 -44 -13 -37 3 3 8 5 17 5 19 0 2 4 4 10 4 5 0 7 -8 4 -17 -5 -15 -4
-16 5 -3 16 22 13 30 -9 30 -11 0 -20 -7 -20 -15 0 -22 -30 -18 -54 8 -13 13
-20 34 -20 52 2 30 2 30 -3 2 -2 -16 -11 -31 -19 -34 -8 -3 -14 -13 -14 -23 0
-10 -7 -23 -15 -30 -18 -15 -18 -14 -5 28 8 29 7 32 -5 22 -19 -16 -37 -3 -30
23 2 12 2 16 -1 9 -3 -6 -11 -9 -16 -6 -7 4 -8 2 -4 -4 4 -7 1 -12 -6 -13 -7
0 -2 -5 11 -10 22 -9 23 -11 10 -25 -18 -18 -53 -8 -45 13 3 8 1 11 -4 8 -16
-10 -12 -26 11 -46 17 -15 34 -18 86 -15 35 2 66 -1 69 -5 3 -5 22 -9 42 -10
33 -1 34 -2 12 -9 -36 -12 -212 -12 -205 0 3 5 -2 18 -12 29 -9 12 -20 16 -23
11 -4 -6 -15 -2 -26 8 -11 11 -26 22 -34 25 -12 4 -11 6 2 6 9 1 23 -6 32 -14
16 -17 26 -19 26 -7 0 10 -50 37 -63 34 -4 -1 -6 1 -6 5 5 29 -5 31 -11 3 l-7
-35 -2 38 c0 20 -6 37 -12 37 -5 0 -8 -3 -6 -7 3 -5 0 -19 -5 -33 l-9 -25 -20
24 c-10 13 -20 22 -20 20 -1 -2 -3 -17 -5 -33 -3 -25 -2 -27 10 -11 12 17 13
17 19 1 8 -20 0 -39 -13 -31 -4 3 -11 -11 -14 -30 l-7 -35 -104 0 c-98 0 -103
1 -98 20 5 18 1 19 -58 14 -35 -3 -75 -1 -89 4 -25 9 -25 9 8 17 22 4 38 2 50
-7 15 -12 16 -11 3 5 -16 20 -11 21 23 5 21 -9 29 -8 44 5 10 10 25 17 33 16
8 0 6 -4 -6 -9 -26 -11 2 -12 30 -1 20 8 20 8 -1 15 -12 3 -37 6 -55 6 -78 -1
-84 0 -70 9 11 7 10 11 -5 19 -11 5 -28 8 -39 6 -19 -3 -19 -2 -2 11 13 9 15
15 6 20 -7 5 -16 1 -21 -9 -10 -17 -28 -13 -28 7 0 8 3 7 9 -2 7 -11 10 -9 16
8 3 12 10 19 15 16 4 -3 7 3 6 12 -2 10 -9 18 -17 18 -8 0 -19 3 -24 7 -6 4
-11 -2 -11 -13 0 -10 6 -19 13 -19 21 0 15 -16 -7 -17 -13 -1 -20 4 -20 17 0
10 -4 21 -9 24 -5 4 -7 -4 -3 -16 3 -14 2 -19 -6 -14 -7 4 -12 3 -12 -3 0 -5
6 -12 13 -15 6 -3 1 -4 -13 -3 -16 1 -25 -3 -25 -12 0 -8 -6 -16 -14 -19 -9
-3 -11 0 -6 7 4 8 2 12 -6 10 -31 -4 -60 2 -55 10 4 5 3 17 0 26 -6 14 -9 14
-28 -4 -13 -12 -26 -17 -34 -12 -7 4 -24 6 -37 3 -15 -2 -31 3 -42 13 -12 13
-18 14 -21 5 -3 -7 1 -16 8 -20 7 -4 9 -13 6 -19 -12 -19 -32 11 -31 49 0 33
-2 35 -32 35 -20 0 -33 -5 -33 -12 0 -9 -18 -13 -54 -13 -52 0 -55 -1 -61 -30
-10 -43 -22 -45 -30 -4 -6 36 -7 36 -43 30 -20 -4 -59 -8 -87 -9 -47 -2 -51
-4 -60 -35 -11 -38 -25 -42 -25 -8 0 13 -7 29 -15 36 -12 10 -16 8 -23 -11
l-9 -24 -8 24 c-7 24 8 43 29 35 20 -7 86 22 102 44 13 19 21 21 57 16 23 -4
44 -10 47 -14 9 -13 52 -32 58 -25 3 3 6 21 6 40 0 25 5 37 18 41 36 11 19 26
-22 19 -30 -5 -47 -2 -65 9 -33 22 -55 20 -55 -4 0 -13 -9 -22 -27 -26 -16 -3
-34 -7 -40 -10 -7 -2 -13 5 -13 16 0 13 8 20 27 22 37 4 42 28 6 28 -16 0 -33
4 -38 9 -6 5 -21 11 -34 13 -30 4 -37 21 -16 41 8 9 15 25 15 36 0 26 18 37
26 16 6 -14 8 -14 19 1 9 13 22 16 54 11 34 -4 47 -1 62 14 23 23 39 25 39 4
0 -26 18 -16 29 15 9 26 7 32 -9 43 -11 6 -20 16 -20 22 0 6 -14 16 -31 22
-26 10 -30 15 -21 26 13 15 6 27 -15 27 -8 0 -13 -12 -13 -30 0 -23 -4 -30
-20 -30 -11 0 -20 -4 -20 -9 0 -5 -9 -13 -20 -16 -11 -3 -20 -13 -20 -21 0
-11 9 -13 40 -8 33 5 40 4 40 -10 0 -12 -10 -16 -43 -16 -24 0 -49 6 -56 12
-11 10 -14 10 -18 1 -3 -7 -13 -13 -24 -13 -10 0 -19 -5 -19 -11 0 -17 -20 1
-20 19 -1 25 -46 72 -70 72 -12 0 -28 7 -36 15 -25 24 -34 17 -34 -25 0 -37 3
-41 30 -46 33 -7 41 -24 12 -24 -10 0 -23 -5 -30 -12 -9 -9 -12 -9 -12 1 0 9
-9 11 -30 6 -25 -6 -32 -3 -39 17 -9 21 -10 21 -11 3 -1 -18 -3 -18 -13 4 -9
19 -9 25 0 28 17 6 4 103 -16 124 -23 24 -60 41 -72 34 -17 -11 -58 4 -68 24
-8 14 -6 25 8 42 15 19 17 35 14 76 l-5 52 -77 4 c-53 2 -69 6 -54 11 12 4 23
15 25 24 2 10 22 20 53 28 l50 12 -52 1 -53 1 0 80 c0 64 3 80 15 80 8 0 17
-11 21 -25 4 -16 13 -25 26 -25 12 0 24 -12 33 -33 8 -18 14 -25 15 -14 0 23
17 22 25 -3 8 -26 25 -16 25 14 0 23 -28 56 -38 46 -3 -3 -10 10 -14 28 -8 29
-38 47 -38 22 0 -5 -7 -10 -15 -10 -16 0 -30 42 -22 65 4 8 2 17 -3 20 -6 4
-10 -3 -10 -13 0 -11 -11 -27 -24 -35 -22 -15 -25 -15 -40 2 -9 10 -16 23 -16
29 0 7 -4 12 -10 12 -5 0 -10 7 -10 15 0 8 -4 15 -10 15 -15 0 -12 -19 6 -38
15 -14 15 -17 -2 -29 -11 -8 -27 -12 -36 -9 -19 4 -25 -9 -9 -18 5 -3 11 -30
13 -61 7 -87 28 -90 36 -5 4 47 6 50 33 50 l29 0 0 -70 c0 -39 5 -79 12 -90
10 -15 9 -23 -6 -39 -23 -26 -43 -27 -49 -3 -3 9 -3 -12 0 -48 3 -36 10 -73
15 -82 11 -23 44 -23 57 0 9 15 10 14 11 -6 0 -13 4 -31 9 -41 6 -10 6 -23 0
-32 -6 -10 -9 -10 -9 -1 0 8 -17 12 -50 12 -48 0 -50 1 -40 21 15 26 3 99 -15
99 -8 0 -13 11 -13 28 1 42 -21 112 -43 135 -21 23 -27 113 -8 119 7 2 -7 11
-30 20 l-41 16 1 -276 c0 -184 4 -281 11 -289 8 -10 8 -21 -1 -39 -8 -18 -11
-115 -11 -319 l1 -294 32 -4 32 -4 -32 -1 -33 -2 0 -515 0 -515 3595 0 3595 0
0 453 c0 441 0 452 -20 465 -11 7 -20 23 -20 37 0 14 9 30 20 37 18 12 20 24
20 120 0 64 -4 108 -10 108 -6 0 -6 9 0 26 14 35 13 334 0 334 -11 0 -8 108 6
183 5 29 3 37 -9 37 -8 0 -18 8 -22 18 -14 33 -23 82 -15 82 4 0 11 20 14 45
4 25 13 51 21 59 12 11 14 404 15 2595 0 1550 -3 2581 -9 2581 -5 0 -9 -180
-10 -433z m-2457 -602 c31 -31 43 -50 39 -62 -4 -11 -3 -14 5 -9 7 4 12 2 12
-3 0 -16 -15 -13 -30 4 -6 8 -8 20 -4 27 4 7 -2 5 -13 -5 -20 -18 -21 -17 -42
9 -11 15 -21 32 -22 38 0 6 -2 19 -4 29 -5 27 9 20 59 -28z m-2208 -230 c4
-25 1 -40 -12 -57 -19 -23 -60 -27 -48 -5 5 8 2 8 -7 0 -19 -18 -29 -16 -29 7
0 23 68 102 81 95 4 -3 11 -21 15 -40z m84 -56 c0 -5 -4 -9 -10 -9 -5 0 -10 7
-10 16 0 8 5 12 10 9 6 -3 10 -10 10 -16z m20 -64 c0 -57 -108 -195 -153 -195
-12 -1 -40 -18 -62 -40 -60 -61 -65 -39 -19 97 l39 118 74 0 c72 0 75 1 83 27
11 32 38 27 38 -7z m-365 -177 c-10 -45 -22 -58 -56 -58 -15 0 -40 -5 -55 -10
-21 -8 -31 -7 -46 7 -17 15 -17 18 -3 32 15 15 126 59 153 60 10 1 12 -7 7
-31z m1293 -869 c33 -11 55 -48 71 -119 15 -69 0 -128 -43 -167 -41 -38 -76
-42 -130 -16 -44 21 -67 67 -74 149 -6 78 1 104 34 137 30 30 85 36 142 16z
m523 -53 c47 -20 74 -53 88 -108 25 -103 2 -180 -57 -193 -35 -7 -88 13 -115
43 -21 23 -41 141 -32 188 5 30 36 66 65 77 8 3 16 6 16 6 1 1 17 -5 35 -13z
m469 -495 c40 -15 187 -109 214 -136 47 -46 152 -177 169 -212 9 -17 21 -58
26 -92 20 -122 -35 -444 -88 -521 -10 -14 -31 -50 -47 -80 -48 -91 -79 -130
-95 -119 -8 5 -21 9 -30 9 -15 0 -15 -5 -5 -37 6 -21 31 -71 55 -111 38 -63
42 -75 30 -87 -18 -19 -29 -10 -64 50 -15 28 -48 73 -73 100 -25 28 -56 68
-71 90 -14 22 -37 50 -51 62 -14 12 -33 29 -42 38 -10 8 -15 21 -12 30 4 8 2
15 -4 15 -5 0 -7 11 -4 25 10 54 -8 113 -48 157 -30 32 -42 57 -50 98 -12 61
-45 140 -59 140 -5 0 -11 -14 -15 -32 l-6 -32 -30 58 c-27 51 -30 67 -30 149
0 88 2 94 28 124 16 17 40 53 55 80 14 28 37 67 50 87 14 19 30 57 36 83 10
41 17 50 49 64 34 15 74 15 112 0z m2590 -291 c0 -48 -3 -60 -16 -60 -12 0
-14 5 -9 18 4 9 7 32 6 50 -2 31 4 52 15 52 2 0 4 -27 4 -60z m-4190 -220 c0
-5 -4 -10 -10 -10 -5 0 -10 5 -10 10 0 6 5 10 10 10 6 0 10 -4 10 -10z m-460
-240 c0 -5 -4 -10 -10 -10 -5 0 -10 5 -10 10 0 6 5 10 10 10 6 0 10 -4 10 -10z
m15 -60 c3 -5 1 -10 -4 -10 -6 0 -11 5 -11 10 0 6 2 10 4 10 3 0 8 -4 11 -10z
m-4 -43 c15 4 18 2 13 -11 -3 -9 -11 -13 -17 -9 -6 4 -8 0 -4 -10 5 -14 3 -15
-13 -4 -22 13 -23 17 -13 44 6 16 8 16 11 2 2 -11 10 -15 23 -12z m359 -97 c0
-11 -22 -63 -30 -70 -3 -3 -16 -22 -29 -43 -19 -30 -26 -35 -37 -26 -17 14
-19 33 -3 23 13 -8 29 13 29 40 0 11 11 34 26 53 24 32 44 43 44 23z m27 -75
c-5 -15 -34 -18 -34 -3 0 8 9 14 19 14 10 0 17 -5 15 -11z m-220 -267 c-3 -7
-5 -2 -5 12 0 14 2 19 5 13 2 -7 2 -19 0 -25z m1708 -60 c14 -13 -1 -9 -52 14
-40 17 -73 35 -73 39 0 12 102 -32 125 -53z m-1677 27 c-6 -14 -13 -23 -16
-21 -7 7 9 46 18 46 5 0 4 -11 -2 -25z m-42 -69 c-8 -77 -24 -128 -40 -123
-21 7 -18 49 11 118 15 38 30 69 32 69 2 0 1 -29 -3 -64z m2009 -168 c17 -20
23 -34 15 -36 -13 -5 -52 29 -82 71 l-21 29 30 -16 c17 -8 43 -30 58 -48z
m-1209 -6 c-6 -11 -114 -37 -122 -30 -3 3 21 12 53 21 71 19 75 19 69 9z
m-846 -11 c0 -12 -20 -25 -27 -18 -7 7 6 27 18 27 5 0 9 -4 9 -9z m2125 -61
c3 -5 2 -10 -4 -10 -5 0 -13 5 -16 10 -3 6 -2 10 4 10 5 0 13 -4 16 -10z
m-1995 -64 c0 -3 -4 -8 -10 -11 -5 -3 -10 -1 -10 4 0 6 5 11 10 11 6 0 10 -2
10 -4z m-833 -178 c-3 -8 -6 -5 -6 6 -1 11 2 17 5 13 3 -3 4 -12 1 -19z m2913
-13 c-7 -9 -15 -13 -18 -10 -3 2 1 11 8 20 7 9 15 13 18 10 3 -2 -1 -11 -8
-20z m-2149 -15 c30 -17 22 -30 -11 -19 -16 6 -27 15 -24 20 7 11 11 11 35 -1z
m2226 -27 c-3 -10 -5 -4 -5 12 0 17 2 24 5 18 2 -7 2 -21 0 -30z m33 7 c0 -5
-5 -10 -11 -10 -5 0 -7 5 -4 10 3 6 8 10 11 10 2 0 4 -4 4 -10z m-2317 -87
c11 -13 15 -23 9 -23 -14 0 -42 40 -41 60 0 13 1 13 6 0 3 -8 15 -25 26 -37z
m87 -18 c-7 -9 -15 -13 -17 -11 -7 7 7 26 19 26 6 0 6 -6 -2 -15z m700 -256
c0 -5 -4 -9 -10 -9 -5 0 -10 7 -10 16 0 8 5 12 10 9 6 -3 10 -10 10 -16z m60
-41 c0 -16 -3 -19 -11 -11 -6 6 -8 16 -5 22 11 17 16 13 16 -11z m-3360 -38
c0 -5 -8 -10 -17 -10 -15 0 -16 2 -3 10 19 12 20 12 20 0z m3297 -6 c-3 -3
-12 -4 -19 -1 -8 3 -5 6 6 6 11 1 17 -2 13 -5z m-3247 -29 c0 -8 -4 -15 -10
-15 -5 0 -10 7 -10 15 0 8 5 15 10 15 6 0 10 -7 10 -15z m-29 -75 c28 0 23
-19 -7 -31 -33 -12 -38 -7 -29 28 4 15 10 22 12 16 3 -7 13 -13 24 -13z m117
1 c40 -34 23 -50 -35 -35 -16 4 -23 14 -23 30 0 29 25 31 58 5z m190 -75 c-4
-6 -8 -19 -8 -30 0 -16 -2 -18 -9 -7 -6 9 -6 24 0 38 5 14 10 41 11 61 1 36 1
36 7 -8 4 -25 3 -49 -1 -54z m2842 90 c0 -3 -4 -8 -10 -11 -5 -3 -10 -1 -10 4
0 6 5 11 10 11 6 0 10 -2 10 -4z m-2910 -80 c0 -3 -4 -8 -10 -11 -5 -3 -10 -1
-10 4 0 6 5 11 10 11 6 0 10 -2 10 -4z m-85 -57 c9 -14 -4 -27 -13 -13 -4 6
-14 14 -22 17 -10 4 -8 6 7 6 12 1 25 -4 28 -10z m1345 -9 c0 -5 -9 -10 -20
-10 -11 0 -20 5 -20 10 0 6 9 10 20 10 11 0 20 -4 20 -10z m-1178 -91 c1 -13
-2 -40 -5 -59 -3 -19 -6 -37 -6 -40 -1 -3 -8 8 -16 24 -18 34 -20 87 -3 104
15 15 30 1 30 -29z m-224 1 c39 0 35 -15 -8 -24 -36 -9 -54 6 -44 35 6 20 9
21 12 7 2 -13 13 -18 40 -18z m529 8 c-3 -8 -6 -5 -6 6 -1 11 2 17 5 13 3 -3
4 -12 1 -19z m-432 2 c3 -5 -3 -10 -14 -10 -12 0 -21 -7 -21 -15 0 -8 -4 -15
-10 -15 -14 0 -13 23 2 38 15 15 35 16 43 2z m200 1 c3 -5 1 -12 -5 -16 -5 -3
-10 1 -10 9 0 18 6 21 15 7z m-191 -102 c-9 -10 -21 -16 -25 -13 -17 10 -9 53
14 76 l22 23 3 -33 c2 -22 -3 -41 -14 -53z m416 56 c0 -8 -4 -15 -9 -15 -13 0
-22 16 -14 24 11 11 23 6 23 -9z m-350 -27 c0 -7 -11 -18 -25 -25 -28 -13 -30
-11 -13 17 14 22 38 27 38 8z m420 -42 c0 -13 -3 -31 -6 -40 -11 -29 -24 -16
-24 24 0 29 4 40 15 40 9 0 15 -9 15 -24z m-79 -43 c10 3 19 1 19 -4 0 -5 -8
-9 -17 -10 -23 -1 -44 -5 -66 -14 -15 -7 -17 -4 -11 19 5 22 3 28 -15 33 -25
7 -27 20 -3 25 9 2 29 -9 45 -25 19 -19 36 -27 48 -24z m-524 21 c-3 -3 -12
-4 -19 -1 -8 3 -5 6 6 6 11 1 17 -2 13 -5z m133 -4 c0 -5 -2 -10 -4 -10 -3 0
-8 5 -11 10 -3 6 -1 10 4 10 6 0 11 -4 11 -10z m3244 -47 c4 -5 18 -8 29 -8
15 0 23 -7 24 -20 1 -11 4 -33 6 -50 3 -16 0 -39 -6 -50 -6 -11 -10 -23 -9
-27 4 -17 -70 -2 -89 18 -28 30 -19 87 17 111 19 12 22 18 12 24 -7 5 -8 9 -2
9 6 0 14 -3 18 -7z m-170 -25 c9 15 59 4 74 -15 14 -20 16 -109 2 -118 -10 -6
-18 20 -22 75 -2 24 -8 36 -21 38 -32 6 -47 -17 -47 -71 0 -69 -18 -49 -22 23
-3 58 8 92 22 70 5 -8 10 -9 14 -2z m-2781 -45 c-7 -2 -19 -2 -25 0 -7 3 -2 5
12 5 14 0 19 -2 13 -5z m347 -49 c0 -8 -4 -12 -10 -9 -5 3 -10 10 -10 16 0 5
5 9 10 9 6 0 10 -7 10 -16z m5510 6 c0 -5 -4 -10 -10 -10 -5 0 -10 5 -10 10 0
6 5 10 10 10 6 0 10 -4 10 -10z m-34 -52 c-5 -58 -8 -60 -15 -13 -7 43 -5 55
9 55 6 0 8 -19 6 -42z m-5948 18 c-7 -8 -17 -12 -22 -9 -4 3 -2 9 5 14 22 13
31 11 17 -5z m-91 -18 c-3 -8 -6 -5 -6 6 -1 11 2 17 5 13 3 -3 4 -12 1 -19z
m1850 -4 c-7 -7 12 -28 33 -37 13 -5 13 -6 -1 -6 -22 -1 -53 24 -45 37 4 7 10
12 13 12 4 0 4 -3 0 -6z m-592 -32 c-6 -7 -34 11 -29 19 3 5 11 3 19 -4 7 -6
12 -13 10 -15z m515 19 c0 -6 -4 -12 -8 -15 -5 -3 -9 1 -9 9 0 8 4 15 9 15 4
0 8 -4 8 -9z m-802 -31 c-2 -8 -15 -16 -30 -18 -22 -3 -26 0 -21 16 6 24 55
26 51 2z m2302 10 c0 -5 -5 -10 -11 -10 -5 0 -7 5 -4 10 3 6 8 10 11 10 2 0 4
-4 4 -10z m-2765 -10 c3 -5 -1 -10 -9 -10 -9 0 -16 5 -16 10 0 6 4 10 9 10 6
0 13 -4 16 -10z m375 0 c0 -5 -7 -10 -16 -10 -8 0 -12 5 -9 10 3 6 10 10 16
10 5 0 9 -4 9 -10z m240 0 c0 -5 -5 -10 -11 -10 -5 0 -7 5 -4 10 3 6 8 10 11
10 2 0 4 -4 4 -10z m435 -9 c3 -5 1 -12 -5 -16 -5 -3 -10 1 -10 9 0 18 6 21
15 7z m45 -12 c0 -6 -4 -7 -10 -4 -5 3 -10 11 -10 16 0 6 5 7 10 4 6 -3 10
-11 10 -16z m-543 5 c-3 -3 -12 -4 -19 -1 -8 3 -5 6 6 6 11 1 17 -2 13 -5z
m616 -1 c-7 -2 -19 -2 -25 0 -7 3 -2 5 12 5 14 0 19 -2 13 -5z m4356 -25 c0
-27 -2 -29 -8 -13 -5 11 -6 26 -4 33 8 21 13 13 12 -20z m-5716 15 c-7 -2 -21
-2 -30 0 -10 3 -4 5 12 5 17 0 24 -2 18 -5z m292 -28 c0 -12 -61 -19 -83 -9
-13 6 -10 9 13 15 39 9 70 7 70 -6z m610 5 c-3 -5 -34 -9 -68 -8 -62 1 -62 1
-17 8 70 11 92 11 85 0z m55 0 c0 -5 -7 -10 -15 -10 -8 0 -15 5 -15 10 0 6 7
10 15 10 8 0 15 -4 15 -10z m-447 -7 c-7 -2 -21 -2 -30 0 -10 3 -4 5 12 5 17
0 24 -2 18 -5z m-1021 -20 c-23 -2 -61 -2 -85 0 -23 2 -4 4 43 4 47 0 66 -2
42 -4z m171 0 c-7 -2 -19 -2 -25 0 -7 3 -2 5 12 5 14 0 19 -2 13 -5z"/>
<path d="M3595 1300 c3 -5 8 -10 11 -10 2 0 4 5 4 10 0 6 -5 10 -11 10 -5 0
-7 -4 -4 -10z"/>
<path d="M3543 1273 c-24 -9 -13 -22 17 -21 18 1 29 6 27 12 -4 13 -26 17 -44
9z"/>
<path d="M3530 1215 c0 -24 27 -29 63 -11 l32 15 -36 -1 c-20 -1 -41 2 -47 6
-7 4 -12 1 -12 -9z"/>
<path d="M7149 6345 c-6 -40 -4 -53 7 -43 3 3 4 23 2 44 l-3 39 -6 -40z"/>
<path d="M7098 6303 c7 -3 16 -2 19 1 4 3 -2 6 -13 5 -11 0 -14 -3 -6 -6z"/>
<path d="M6560 5916 c0 -9 7 -16 16 -16 9 0 14 5 12 12 -6 18 -28 21 -28 4z"/>
<path d="M7130 5881 c0 -17 5 -31 10 -31 6 0 10 11 10 24 0 14 -4 28 -10 31
-6 4 -10 -7 -10 -24z"/>
<path d="M6510 5892 c0 -5 9 -18 21 -30 17 -20 22 -20 35 -8 20 20 18 26 -11
26 -14 0 -25 5 -25 10 0 6 -4 10 -10 10 -5 0 -10 -4 -10 -8z"/>
<path d="M6482 5320 c0 -14 2 -19 5 -12 2 6 2 18 0 25 -3 6 -5 1 -5 -13z"/>
<path d="M6505 5260 c-3 -6 1 -7 9 -4 18 7 21 14 7 14 -6 0 -13 -4 -16 -10z"/>
<path d="M6497 5214 c-10 -10 -9 -64 1 -64 5 0 17 10 28 23 10 12 15 18 9 14
-5 -4 -14 2 -20 13 -6 11 -14 17 -18 14z"/>
<path d="M6418 5183 c7 -3 16 -2 19 1 4 3 -2 6 -13 5 -11 0 -14 -3 -6 -6z"/>
<path d="M7068 5104 c-5 -4 -8 -16 -8 -28 0 -14 3 -17 11 -9 6 6 9 19 7 28 -1
9 -6 13 -10 9z"/>
<path d="M6490 4995 c0 -14 5 -25 10 -25 6 0 10 11 10 25 0 14 -4 25 -10 25
-5 0 -10 -11 -10 -25z"/>
<path d="M6160 4450 c0 -5 5 -10 10 -10 6 0 10 5 10 10 0 6 -4 10 -10 10 -5 0
-10 -4 -10 -10z"/>
<path d="M6281 4234 c0 -11 3 -14 6 -6 3 7 2 16 -1 19 -3 4 -6 -2 -5 -13z"/>
<path d="M6180 4150 c0 -5 5 -10 10 -10 6 0 10 5 10 10 0 6 -4 10 -10 10 -5 0
-10 -4 -10 -10z"/>
<path d="M6900 3809 c0 -5 5 -7 10 -4 6 3 10 8 10 11 0 2 -4 4 -10 4 -5 0 -10
-5 -10 -11z"/>
<path d="M7060 3766 c0 -14 5 -26 10 -26 6 0 10 9 10 19 0 11 -4 23 -10 26 -6
4 -10 -5 -10 -19z"/>
<path d="M6946 3755 c-9 -9 -16 -31 -15 -48 l1 -32 13 30 c13 28 14 28 15 6 0
-20 2 -22 16 -11 17 15 15 61 -2 67 -7 2 -19 -3 -28 -12z"/>
<path d="M6120 3730 c0 -5 5 -10 10 -10 6 0 10 5 10 10 0 6 -4 10 -10 10 -5 0
-10 -4 -10 -10z"/>
<path d="M7031 3706 c-8 -9 -10 -28 -5 -50 8 -43 22 -49 16 -6 -3 18 0 30 7
30 6 0 11 9 11 20 0 23 -13 26 -29 6z"/>
<path d="M6934 3631 c2 -44 16 -50 16 -8 0 21 -4 37 -9 37 -5 0 -8 -13 -7 -29z"/>
<path d="M6213 3533 c-21 -8 -15 -33 7 -33 13 0 20 7 20 20 0 20 -5 23 -27 13z"/>
<path d="M6271 3514 c0 -11 3 -14 6 -6 3 7 2 16 -1 19 -3 4 -6 -2 -5 -13z"/>
<path d="M6977 3433 c3 -27 7 -49 8 -51 2 -2 14 0 29 4 22 5 26 12 26 40 0 34
-20 54 -54 54 -13 0 -14 -9 -9 -47z"/>
<path d="M6190 3451 c-14 -27 -13 -31 10 -31 17 0 20 -7 20 -40 0 -22 5 -40
10 -40 15 0 12 63 -6 98 -18 37 -20 38 -34 13z"/>
<path d="M6188 3333 c7 -3 16 -2 19 1 4 3 -2 6 -13 5 -11 0 -14 -3 -6 -6z"/>
<path d="M6197 3272 c-10 -10 -17 -29 -17 -41 0 -18 4 -22 18 -16 15 7 34 10
85 14 27 2 10 21 -19 21 -17 0 -24 5 -24 20 0 25 -22 26 -43 2z"/>
<path d="M6120 3235 c0 -8 9 -15 20 -15 11 0 20 7 20 15 0 8 -9 15 -20 15 -11
0 -20 -7 -20 -15z"/>
<path d="M6111 3133 c-8 -43 -8 -60 2 -80 l13 -25 32 36 c35 40 62 47 62 16 0
-11 -7 -20 -15 -20 -8 0 -17 -14 -21 -34 -7 -38 0 -56 20 -56 7 0 13 -7 13
-15 0 -8 -6 -15 -14 -15 -22 0 -15 -28 12 -46 23 -15 34 -35 18 -33 -5 1 -23
1 -40 0 -29 -1 -33 -5 -33 -27 0 -22 2 -25 15 -14 8 7 15 11 16 9 8 -50 5 -69
-11 -69 -10 0 -21 -6 -23 -12 -8 -18 -27 10 -27 39 0 20 -3 21 -24 13 -13 -5
-27 -6 -30 -3 -3 4 -6 -10 -6 -31 0 -25 4 -35 11 -30 7 4 19 -3 29 -16 l18
-23 33 20 33 21 13 -25 c7 -14 13 -32 13 -39 0 -8 5 -14 10 -14 14 0 12 -37
-2 -43 -10 -4 -10 -7 0 -18 6 -7 12 -23 12 -36 0 -13 6 -23 14 -23 17 0 18 71
2 82 -8 5 -7 14 2 28 6 11 12 27 12 36 0 10 6 14 14 11 10 -4 13 -1 9 9 -3 7
-18 14 -33 14 -24 0 -27 3 -22 25 2 14 9 25 16 25 6 0 5 4 -3 9 -9 6 -11 17
-6 32 4 13 10 51 14 84 7 55 6 62 -16 83 -30 27 -29 74 2 78 10 2 25 -2 32 -8
10 -8 15 -3 23 18 20 53 -9 104 -29 52 l-10 -23 -1 25 c-1 30 -30 71 -37 53
-7 -18 -33 -16 -33 2 0 24 -30 17 -31 -7 -1 -16 -3 -18 -6 -6 -2 9 -10 19 -17
21 -10 4 -17 -11 -25 -50z m56 -25 c-3 -8 -6 -5 -6 6 -1 11 2 17 5 13 3 -3 4
-12 1 -19z"/>
<path d="M6071 3084 c0 -11 3 -14 6 -6 3 7 2 16 -1 19 -3 4 -6 -2 -5 -13z"/>
<path d="M6241 3004 c0 -11 3 -14 6 -6 3 7 2 16 -1 19 -3 4 -6 -2 -5 -13z"/>
<path d="M6152 2915 c0 -16 2 -22 5 -12 2 9 2 23 0 30 -3 6 -5 -1 -5 -18z"/>
<path d="M6306 2804 c-9 -25 -7 -72 4 -79 6 -4 10 13 10 44 0 53 -4 62 -14 35z"/>
<path d="M148 2713 c-2 -5 -1 -28 3 -53 l6 -45 1 53 c2 48 -2 63 -10 45z"/>
<path d="M6038 2703 c7 -3 16 -2 19 1 4 3 -2 6 -13 5 -11 0 -14 -3 -6 -6z"/>
<path d="M6160 2685 c0 -8 2 -15 4 -15 2 0 6 7 10 15 3 8 1 15 -4 15 -6 0 -10
-7 -10 -15z"/>
<path d="M6190 2635 c0 -8 7 -15 15 -15 8 0 15 7 15 15 0 8 -7 15 -15 15 -8 0
-15 -7 -15 -15z"/>
<path d="M6106 2583 c4 -21 8 -41 10 -44 6 -11 54 -17 60 -8 3 5 0 9 -5 9 -6
0 -11 4 -11 9 0 5 8 8 17 7 12 0 19 7 21 22 3 16 -2 22 -17 22 -11 0 -21 -8
-24 -17 -3 -15 -6 -13 -17 10 -20 42 -42 36 -34 -10z"/>
<path d="M80 2580 c0 -5 7 -10 16 -10 8 0 12 5 9 10 -3 6 -10 10 -16 10 -5 0
-9 -4 -9 -10z"/>
<path d="M0 2530 c0 -23 4 -30 20 -30 23 0 27 29 8 48 -19 19 -28 14 -28 -18z"/>
<path d="M231 2463 c-9 -10 -11 -21 -5 -30 16 -25 29 -19 32 15 4 35 -5 40
-27 15z"/>
<path d="M6195 2471 c-6 -11 9 -23 19 -14 9 9 7 23 -3 23 -6 0 -12 -4 -16 -9z"/>
<path d="M6240 2456 c0 -22 3 -27 11 -19 8 8 8 16 0 30 -9 16 -10 14 -11 -11z"/>
<path d="M0 2410 c0 -29 3 -50 7 -46 7 7 5 87 -3 95 -2 2 -4 -20 -4 -49z"/>
<path d="M70 2440 c0 -11 7 -20 15 -20 8 0 15 9 15 20 0 11 -7 20 -15 20 -8 0
-15 -9 -15 -20z"/>
<path d="M6110 2389 c0 -6 -9 -9 -19 -6 -13 3 -18 0 -15 -8 3 -7 1 -16 -5 -20
-14 -8 -14 -55 -1 -55 6 0 10 -6 10 -12 0 -7 11 -18 25 -25 21 -9 27 -8 35 7
5 10 7 26 4 35 -4 10 2 24 15 37 13 11 20 27 17 35 -3 8 -6 18 -6 21 0 4 -5 0
-10 -8 -7 -12 -12 -12 -22 -2 -15 15 -28 16 -28 1z"/>
<path d="M505 2370 c3 -5 13 -10 21 -10 8 0 14 5 14 10 0 6 -9 10 -21 10 -11
0 -17 -4 -14 -10z"/>
<path d="M25 2325 c-5 -11 -13 -23 -19 -27 -6 -4 -8 -9 -6 -12 11 -10 42 24
37 41 -4 17 -4 17 -12 -2z"/>
<path d="M72 2328 c-15 -15 -15 -25 1 -31 8 -3 14 4 15 19 2 27 1 29 -16 12z"/>
<path d="M6316 2297 c3 -10 9 -15 12 -12 3 3 0 11 -7 18 -10 9 -11 8 -5 -6z"/>
<path d="M298 2293 c7 -3 16 -2 19 1 4 3 -2 6 -13 5 -11 0 -14 -3 -6 -6z"/>
<path d="M6160 2250 c0 -20 5 -30 14 -30 12 0 13 6 5 30 -6 17 -13 30 -15 30
-2 0 -4 -13 -4 -30z"/>
<path d="M6125 2230 c-3 -5 1 -10 10 -10 9 0 13 5 10 10 -3 6 -8 10 -10 10 -2
0 -7 -4 -10 -10z"/>
<path d="M730 2211 c0 -6 5 -13 10 -16 6 -3 10 1 10 9 0 9 -4 16 -10 16 -5 0
-10 -4 -10 -9z"/>
<path d="M5109 2159 c-22 -14 6 -28 52 -23 37 3 39 2 39 -26 0 -17 -5 -30 -11
-30 -6 0 -4 -7 5 -15 36 -36 51 -6 23 48 -12 24 -26 37 -39 37 -10 0 -27 4
-37 9 -10 6 -23 6 -32 0z"/>
<path d="M3280 2129 c0 -5 5 -7 10 -4 6 3 10 8 10 11 0 2 -4 4 -10 4 -5 0 -10
-5 -10 -11z"/>
<path d="M5160 2110 c0 -5 7 -10 16 -10 8 0 12 5 9 10 -3 6 -10 10 -16 10 -5
0 -9 -4 -9 -10z"/>
<path d="M6110 2091 c0 -16 -6 -31 -14 -34 -12 -5 -12 -11 2 -42 14 -31 21
-36 43 -33 21 3 25 1 21 -14 -2 -9 -10 -22 -17 -28 -8 -6 -11 -18 -8 -26 3 -9
-2 -14 -17 -14 -30 0 -20 -24 12 -28 19 -2 27 2 30 15 2 10 4 -17 5 -59 1 -63
6 -82 22 -99 16 -18 23 -20 35 -10 12 10 15 8 18 -11 4 -27 17 -30 31 -6 8 12
7 24 -3 43 -11 21 -12 30 -2 45 13 22 0 70 -19 70 -12 0 -8 72 5 103 6 13 3
17 -14 17 -12 0 -18 4 -15 10 27 44 -2 108 -44 97 -12 -3 -27 3 -37 14 -24 27
-34 24 -34 -10z m90 -262 c0 -5 -7 -9 -15 -9 -9 0 -12 6 -9 15 6 15 24 11 24
-6z m64 -92 c7 -6 6 -7 -4 -4 -8 2 -16 12 -17 23 -2 13 -1 15 4 4 3 -8 11 -19
17 -23z"/>
<path d="M350 2049 c0 -5 5 -7 10 -4 6 3 10 8 10 11 0 2 -4 4 -10 4 -5 0 -10
-5 -10 -11z"/>
<path d="M2145 2036 c-33 -33 -34 -87 -3 -116 32 -30 63 -25 92 13 44 57 29
105 -37 121 -21 5 -33 1 -52 -18z m89 -21 c8 -22 -10 -62 -34 -75 -51 -27 -82
28 -40 70 24 24 65 26 74 5z"/>
<path d="M240 2010 c0 -13 7 -16 30 -12 34 5 32 17 -5 24 -19 4 -25 1 -25 -12z"/>
<path d="M320 2009 c0 -6 9 -8 21 -4 13 4 27 0 40 -11 18 -16 19 -16 19 4 0
19 -6 22 -40 22 -22 0 -40 -5 -40 -11z"/>
<path d="M500 2000 c0 -11 7 -20 15 -20 8 0 15 -6 15 -13 0 -7 9 -23 19 -34
12 -12 18 -29 15 -41 -4 -12 0 -22 11 -26 21 -8 35 1 35 22 0 29 -35 117 -47
117 -6 0 -15 3 -19 8 -15 15 -44 7 -44 -13z"/>
<path d="M813 1969 c14 -8 22 -8 30 0 8 8 3 11 -18 11 -26 -1 -28 -2 -12 -11z"/>
<path d="M1020 1976 c0 -9 30 -14 35 -6 4 6 -3 10 -14 10 -12 0 -21 -2 -21 -4z"/>
<path d="M6072 1950 c0 -19 2 -27 5 -17 2 9 2 25 0 35 -3 9 -5 1 -5 -18z"/>
<path d="M3455 1920 c3 -5 8 -10 11 -10 2 0 4 5 4 10 0 6 -5 10 -11 10 -5 0
-7 -4 -4 -10z"/>
<path d="M390 1890 c0 -5 4 -10 9 -10 6 0 13 5 16 10 3 6 -1 10 -9 10 -9 0
-16 -4 -16 -10z"/>
<path d="M480 1885 c0 -8 5 -15 10 -15 6 0 10 7 10 15 0 8 -4 15 -10 15 -5 0
-10 -7 -10 -15z"/>
<path d="M1057 1886 c-6 -14 -10 -16 -21 -7 -10 9 -16 9 -21 1 -4 -6 -5 -12
-4 -13 2 -1 14 -8 27 -15 19 -10 23 -10 28 2 3 8 4 23 2 33 -3 17 -4 17 -11
-1z"/>
<path d="M350 1830 c0 -5 5 -10 11 -10 5 0 7 5 4 10 -3 6 -8 10 -11 10 -2 0
-4 -4 -4 -10z"/>
<path d="M1250 1816 c0 -9 5 -16 10 -16 6 0 10 4 10 9 0 6 -4 13 -10 16 -5 3
-10 -1 -10 -9z"/>
<path d="M592 1775 c-16 -35 -16 -35 18 -35 17 0 30 2 30 5 0 11 -24 55 -30
55 -4 0 -12 -11 -18 -25z"/>
<path d="M6151 1764 c0 -11 3 -14 6 -6 3 7 2 16 -1 19 -3 4 -6 -2 -5 -13z"/>
<path d="M7060 1755 c0 -8 5 -15 10 -15 6 0 10 7 10 15 0 8 -4 15 -10 15 -5 0
-10 -7 -10 -15z"/>
<path d="M496 1747 c-11 -8 -16 -21 -13 -33 4 -16 5 -15 6 5 1 21 5 23 36 19
24 -3 35 0 35 9 0 17 -41 17 -64 0z"/>
<path d="M769 1733 c0 -5 -2 -18 -5 -30 -4 -25 5 -30 24 -11 9 9 12 7 12 -10
0 -13 6 -22 16 -22 12 0 14 7 9 33 -10 43 -13 47 -36 47 -10 0 -19 -3 -20 -7z"/>
<path d="M1250 1730 c0 -5 5 -10 10 -10 6 0 10 5 10 10 0 6 -4 10 -10 10 -5 0
-10 -4 -10 -10z"/>
<path d="M6045 1730 c3 -5 8 -10 11 -10 2 0 4 5 4 10 0 6 -5 10 -11 10 -5 0
-7 -4 -4 -10z"/>
<path d="M710 1670 c-7 -12 -7 -27 -2 -36 8 -14 10 -13 23 2 10 13 11 18 2 21
-7 2 -9 11 -6 19 8 21 -5 17 -17 -6z"/>
<path d="M510 1639 c0 -25 33 -22 38 4 2 12 -3 17 -17 17 -15 0 -21 -6 -21
-21z"/>
<path d="M1120 1644 c0 -8 5 -12 10 -9 6 3 10 10 10 16 0 5 -4 9 -10 9 -5 0
-10 -7 -10 -16z"/>
<path d="M2498 1615 c-8 -38 28 -135 51 -135 3 0 7 22 8 50 2 37 -1 48 -11 44
-16 -6 -33 14 -38 46 -3 24 -4 24 -10 -5z"/>
<path d="M1420 1620 c0 -13 20 -13 40 0 12 8 9 10 -12 10 -16 0 -28 -4 -28
-10z"/>
<path d="M1680 1620 c0 -5 5 -10 10 -10 6 0 10 5 10 10 0 6 -4 10 -10 10 -5 0
-10 -4 -10 -10z"/>
<path d="M6152 1600 c0 -14 2 -19 5 -12 2 6 2 18 0 25 -3 6 -5 1 -5 -13z"/>
<path d="M1263 1603 c-20 -7 -15 -23 7 -23 17 0 20 -7 20 -39 0 -29 -5 -41
-17 -45 -10 -2 -4 -4 12 -3 29 2 30 4 30 51 0 40 -4 50 -20 56 -11 4 -26 5
-32 3z"/>
<path d="M1847 1603 c-12 -11 -8 -23 8 -23 8 0 15 7 15 15 0 16 -12 20 -23 8z"/>
<path d="M6245 1590 c3 -5 8 -10 11 -10 2 0 4 5 4 10 0 6 -5 10 -11 10 -5 0
-7 -4 -4 -10z"/>
<path d="M1744 1518 c-4 -6 -2 -14 4 -16 7 -2 12 -13 12 -25 0 -14 3 -18 10
-11 7 7 8 19 1 37 -12 30 -16 33 -27 15z"/>
<path d="M7026 1511 c-3 -5 1 -11 9 -14 9 -4 12 -1 8 9 -6 16 -10 17 -17 5z"/>
<path d="M2566 1495 c7 -17 30 -20 38 -6 3 5 -1 12 -10 15 -25 10 -34 7 -28
-9z"/>
<path d="M1127 1493 c-4 -3 -7 -17 -7 -30 0 -20 -5 -23 -40 -23 -29 0 -40 4
-40 15 0 8 -8 15 -17 15 -10 0 -28 3 -40 6 -14 4 -23 2 -23 -5 0 -6 11 -11 24
-11 29 0 42 -15 24 -26 -16 -10 22 -22 75 -23 33 -1 37 -4 37 -26 0 -22 -4
-25 -40 -25 -22 0 -40 -4 -40 -10 0 -5 23 -10 50 -10 l50 0 0 39 c0 22 5 41
11 43 7 2 8 17 4 41 -7 36 -15 44 -28 30z"/>
<path d="M3025 1441 c-88 -32 -99 -43 -73 -69 17 -17 58 -15 58 3 0 8 8 19 18
24 10 5 18 19 19 30 1 12 1 21 0 20 -1 -1 -11 -4 -22 -8z"/>
<path d="M3085 1430 c3 -5 8 -10 11 -10 2 0 4 5 4 10 0 6 -5 10 -11 10 -5 0
-7 -4 -4 -10z"/>
<path d="M2675 1410 c10 -11 26 -20 37 -20 11 0 18 7 18 20 0 16 -7 20 -37 20
-35 0 -36 0 -18 -20z"/>
<path d="M1175 1365 c1 -27 8 -51 14 -53 6 -2 11 -16 12 -30 0 -27 0 -27 17 6
15 32 15 35 0 46 -16 12 -14 15 14 36 l31 23 -24 13 c-40 22 -49 17 -51 -28
l-1 -43 -7 40 c-7 39 -7 38 -5 -10z"/>
<path d="M1755 1411 c-3 -6 5 -15 17 -21 21 -10 22 -10 5 3 -14 11 -15 16 -5
20 9 4 9 6 1 6 -6 1 -14 -3 -18 -8z"/>
<path d="M2880 1404 c0 -8 5 -12 10 -9 6 3 10 10 10 16 0 5 -4 9 -10 9 -5 0
-10 -7 -10 -16z"/>
<path d="M2835 1400 c-3 -5 3 -10 15 -10 12 0 18 5 15 10 -3 6 -10 10 -15 10
-5 0 -12 -4 -15 -10z"/>
<path d="M1430 1384 c4 -38 0 -52 -17 -50 -12 1 -17 -5 -15 -18 3 -13 -1 -17
-12 -13 -9 4 -15 1 -13 -5 1 -7 -3 -12 -10 -13 -7 0 -18 -6 -24 -12 -10 -10
-10 -13 4 -13 9 0 26 9 37 20 21 21 42 18 73 -8 10 -9 17 -11 17 -4 0 6 -8 16
-17 21 -15 9 -15 10 -2 11 8 0 20 -5 27 -12 7 -7 12 -8 12 -2 0 5 -12 17 -27
26 -16 10 -23 18 -17 18 13 0 6 58 -8 66 -5 3 -9 -2 -8 -12z m-2 -72 c6 -18
-15 -14 -22 4 -4 10 -1 14 6 12 6 -2 14 -10 16 -16z"/>
<path d="M1608 1393 c7 -3 16 -2 19 1 4 3 -2 6 -13 5 -11 0 -14 -3 -6 -6z"/>
<path d="M1802 1380 c-9 -14 -8 -21 3 -30 10 -8 15 -8 21 1 4 7 3 9 -4 5 -6
-3 -13 -2 -17 3 -3 5 2 14 11 19 9 5 12 12 7 15 -5 3 -14 -3 -21 -13z"/>
<path d="M6462 1360 c0 -14 2 -19 5 -12 2 6 2 18 0 25 -3 6 -5 1 -5 -13z"/>
<path d="M1573 1355 c-3 -9 -3 -18 -1 -21 3 -3 8 4 11 16 6 23 -1 27 -10 5z"/>
<path d="M3030 1352 c0 -13 -6 -22 -14 -22 -8 0 -17 -4 -20 -8 -2 -4 8 -7 22
-6 23 1 26 5 24 25 -5 32 -12 38 -12 11z"/>
<path d="M1264 1345 c-7 -17 14 -48 26 -40 4 3 10 16 12 30 4 20 1 25 -14 25
-10 0 -21 -7 -24 -15z"/>
<path d="M1507 1353 c-4 -7 2 -18 15 -27 26 -18 38 -20 38 -6 0 6 -3 9 -7 9
-21 -3 -32 3 -35 19 -2 12 -6 13 -11 5z"/>
<path d="M2030 1354 c0 -6 7 -19 15 -30 8 -10 14 -14 14 -9 0 6 -6 19 -14 29
-8 11 -15 15 -15 10z"/>
<path d="M2133 1348 c4 -10 1 -18 -5 -18 -7 0 -7 -4 1 -14 9 -11 9 -15 -1 -18
-8 -3 -8 -7 -1 -11 5 -3 15 4 20 16 8 17 7 28 -4 42 -13 17 -15 17 -10 3z"/>
<path d="M1369 1333 c-13 -16 -12 -17 4 -4 9 7 17 15 17 17 0 8 -8 3 -21 -13z"/>
<path d="M2807 1329 c7 -7 15 -10 18 -7 3 3 -2 9 -12 12 -14 6 -15 5 -6 -5z"/>
<path d="M2955 1332 c-6 -6 4 -22 15 -22 4 0 10 6 13 13 5 13 -17 20 -28 9z"/>
<path d="M3183 1322 c-3 -12 -8 -22 -12 -22 -4 0 -7 -9 -7 -19 0 -11 4 -17 8
-15 4 3 8 12 8 20 0 8 5 14 11 14 5 0 7 5 3 12 -4 7 -3 8 5 4 6 -4 8 -13 4
-19 -11 -17 -13 -37 -4 -37 8 0 35 51 29 54 -2 1 -11 8 -21 15 -16 13 -19 12
-24 -7z"/>
<path d="M1660 1315 c8 -10 8 -14 -2 -17 -9 -3 -9 -6 -1 -11 7 -4 16 1 22 12
9 15 7 20 -10 24 -16 4 -18 3 -9 -8z"/>
<path d="M2020 1321 c0 -6 4 -13 10 -16 6 -3 7 1 4 9 -7 18 -14 21 -14 7z"/>
<path d="M2070 1316 c0 -2 7 -7 16 -10 8 -3 12 -2 9 4 -6 10 -25 14 -25 6z"/>
<path d="M1693 1293 c-3 -10 -8 -22 -11 -27 -3 -5 0 -6 6 -2 7 4 12 1 12 -6 1
-9 5 -7 14 4 7 10 17 14 22 10 5 -4 0 3 -10 16 -23 27 -25 27 -33 5z m22 -2
c3 -5 2 -12 -3 -15 -5 -3 -9 1 -9 9 0 17 3 19 12 6z"/>
<path d="M1530 1290 c0 -5 5 -10 10 -10 6 0 10 5 10 10 0 6 -4 10 -10 10 -5 0
-10 -4 -10 -10z"/>
<path d="M2416 1267 c3 -10 9 -15 12 -12 3 3 0 11 -7 18 -10 9 -11 8 -5 -6z"/>
<path d="M3249 1264 c-9 -12 -5 -14 27 -14 29 0 35 3 26 12 -17 17 -39 18 -53
2z"/>
<path d="M4104 1271 c7 -11 46 -35 46 -28 0 3 -12 12 -26 22 -15 9 -23 12 -20
6z"/>
<path d="M2054 1262 c3 -6 -2 -15 -11 -21 -22 -12 -15 -20 23 -24 25 -3 30 0
31 17 1 12 -1 15 -4 9 -3 -7 -11 -13 -19 -13 -7 0 -11 6 -8 14 3 8 0 17 -7 22
-7 4 -10 3 -5 -4z"/>
<path d="M5775 1230 c-3 -5 -2 -10 4 -10 5 0 13 5 16 10 3 6 2 10 -4 10 -5 0
-13 -4 -16 -10z"/>
<path d="M1814 1208 c2 -21 -1 -26 -15 -23 -9 2 -20 -3 -23 -11 -3 -8 -13 -14
-23 -14 -13 0 -14 -3 -5 -12 17 -17 15 -26 -5 -31 -17 -4 -17 -5 -1 -6 12 -1
16 -7 12 -18 -4 -13 0 -11 15 6 22 24 58 30 101 16 16 -5 20 -2 20 14 0 12 -4
21 -9 21 -5 0 -14 13 -19 30 -7 20 -16 28 -26 24 -8 -3 -16 2 -20 13 -3 10 -4
6 -2 -9z m-17 -64 c-3 -3 -12 -4 -19 -1 -8 3 -5 6 6 6 11 1 17 -2 13 -5z"/>
<path d="M2336 1217 c3 -10 9 -15 12 -12 3 3 0 11 -7 18 -10 9 -11 8 -5 -6z"/>
<path d="M2720 1220 c0 -5 5 -10 11 -10 5 0 7 5 4 10 -3 6 -8 10 -11 10 -2 0
-4 -4 -4 -10z"/>
<path d="M3205 1210 c6 -30 16 -40 12 -12 -2 12 -6 24 -10 28 -3 4 -4 -4 -2
-16z"/>
<path d="M2690 1211 c0 -10 19 -25 25 -20 1 2 -3 10 -11 17 -8 7 -14 8 -14 3z"/>
<path d="M6566 1205 c-9 -23 -8 -25 9 -25 17 0 19 9 6 28 -7 11 -10 10 -15 -3z"/>
<path d="M2281 1194 c0 -11 3 -14 6 -6 3 7 2 16 -1 19 -3 4 -6 -2 -5 -13z"/>
<path d="M3115 1191 c5 -15 3 -21 -3 -17 -6 3 -8 -2 -5 -13 5 -21 34 -18 53 4
8 10 6 15 -12 21 -13 3 -27 12 -31 18 -5 6 -5 0 -2 -13z"/>
<path d="M6100 1200 c0 -5 5 -10 11 -10 5 0 7 5 4 10 -3 6 -8 10 -11 10 -2 0
-4 -4 -4 -10z"/>
<path d="M2200 1190 c0 -5 5 -10 11 -10 5 0 7 5 4 10 -3 6 -8 10 -11 10 -2 0
-4 -4 -4 -10z"/>
<path d="M2531 1178 c-11 -18 -14 -19 -30 -4 -15 14 -17 13 -18 -7 -2 -17 0
-19 8 -7 7 11 8 6 7 -20 -2 -26 1 -35 15 -38 9 -2 17 1 17 7 0 6 -7 11 -15 11
-8 0 -15 4 -15 10 0 5 7 7 15 4 10 -4 13 -2 10 8 -3 8 1 21 10 28 14 12 16 10
13 -16 -2 -21 1 -28 12 -26 11 2 10 -2 -3 -12 -16 -13 -6 -14 92 -15 94 0 112
3 119 17 13 26 -16 49 -53 41 l-30 -6 33 -8 c40 -9 41 -21 2 -27 -22 -3 -30
-1 -31 11 0 12 -3 11 -9 -4 -5 -11 -9 -15 -9 -10 -1 6 -10 11 -21 12 -11 1
-18 -2 -15 -7 8 -13 -28 1 -38 14 -6 7 -7 4 -3 -6 3 -10 1 -18 -3 -18 -12 0
-23 32 -14 39 13 10 15 33 2 25 -7 -4 -17 0 -24 9 -10 14 -12 13 -24 -5z m32
-33 c-3 -9 -8 -14 -10 -11 -3 3 -2 9 2 15 9 16 15 13 8 -4z"/>
<path d="M2634 1188 c2 -7 -6 -18 -16 -24 -18 -9 -18 -12 -3 -24 13 -11 15
-10 8 6 -6 17 -5 17 10 5 18 -14 47 -9 47 9 0 5 -7 10 -16 10 -9 0 -12 5 -8
12 4 6 3 8 -4 4 -5 -3 -13 -1 -15 4 -3 6 -4 5 -3 -2z m33 -34 c-3 -3 -12 -4
-19 -1 -8 3 -5 6 6 6 11 1 17 -2 13 -5z"/>
<path d="M3000 1169 c0 -6 -6 -9 -14 -6 -8 3 -20 -2 -28 -11 -12 -15 -11 -16
5 -3 14 11 17 11 17 0 0 -26 -16 -40 -36 -33 -10 4 -16 4 -12 -1 12 -13 62
-15 70 -2 4 6 2 17 -4 24 -13 16 -4 17 23 3 25 -14 24 -5 -1 20 -11 11 -20 15
-20 9z"/>
<path d="M2270 1159 c0 -15 18 -19 23 -6 3 8 -1 14 -9 14 -8 0 -14 -4 -14 -8z"/>
<path d="M2110 1150 c0 -5 5 -10 10 -10 6 0 10 5 10 10 0 6 -4 10 -10 10 -5 0
-10 -4 -10 -10z"/>
<path d="M2406 1148 c3 -5 10 -6 15 -3 13 9 11 12 -6 12 -8 0 -12 -4 -9 -9z"/>
<path d="M3721 1151 c-7 -5 -9 -11 -5 -14 5 -3 15 1 22 9 14 16 5 18 -17 5z"/>
<path d="M4485 1150 c3 -5 8 -10 11 -10 2 0 4 5 4 10 0 6 -5 10 -11 10 -5 0
-7 -4 -4 -10z"/>
<path d="M2833 1144 c-7 -3 -9 -12 -6 -21 5 -12 1 -14 -15 -9 -11 4 -23 2 -27
-4 -4 -6 13 -10 47 -9 29 0 47 3 40 6 -6 2 -10 9 -7 14 4 5 -2 6 -11 2 -13 -5
-16 -3 -11 10 3 9 5 17 4 16 -1 0 -7 -3 -14 -5z"/>
<path d="M5233 1143 c9 -2 23 -2 30 0 6 3 -1 5 -18 5 -16 0 -22 -2 -12 -5z"/>
<path d="M3880 1131 c0 -6 4 -13 10 -16 6 -3 7 1 4 9 -7 18 -14 21 -14 7z"/>
<path d="M4020 1130 c8 -5 20 -10 25 -10 6 0 3 5 -5 10 -8 5 -19 10 -25 10 -5
0 -3 -5 5 -10z"/>
<path d="M3089 1113 c-13 -16 -12 -17 4 -4 9 7 17 15 17 17 0 8 -8 3 -21 -13z"/>
<path d="M3016 1111 c-3 -5 5 -8 19 -8 14 0 22 3 19 8 -3 5 -11 9 -19 9 -8 0
-16 -4 -19 -9z"/>
<path d="M2398 1103 c7 -3 16 -2 19 1 4 3 -2 6 -13 5 -11 0 -14 -3 -6 -6z"/>
<path d="M6987 944 c-14 -15 -6 -34 14 -34 14 0 19 5 17 17 -3 18 -20 27 -31
17z"/>
</g>
</svg>
